<mxfile host="app.diagrams.net" agent="Mozilla/5.0 (Windows NT 10.0; Win64; x64; rv:136.0) Gecko/20100101 Firefox/136.0" version="26.1.0" pages="4">
  <diagram id="C5RBs43oDa-KdzZeNtuy" name="DataAccess">
    <mxGraphModel dx="2442" dy="815" grid="1" gridSize="10" guides="1" tooltips="1" connect="1" arrows="1" fold="1" page="1" pageScale="1" pageWidth="827" pageHeight="1169" math="0" shadow="0">
      <root>
        <mxCell id="WIyWlLk6GJQsqaUBKTNV-0" />
        <mxCell id="WIyWlLk6GJQsqaUBKTNV-1" parent="WIyWlLk6GJQsqaUBKTNV-0" />
        <mxCell id="QOI_mtyACLwpcaI7UE1c-1" value="Database" style="shape=datastore;whiteSpace=wrap;html=1;" parent="WIyWlLk6GJQsqaUBKTNV-1" vertex="1">
          <mxGeometry x="330" y="610" width="60" height="57" as="geometry" />
        </mxCell>
        <mxCell id="QOI_mtyACLwpcaI7UE1c-14" value="&lt;i&gt;&amp;lt;&amp;lt;interface&amp;gt;&amp;gt;&lt;br&gt;&lt;b&gt;IListingRepository&lt;/b&gt;&lt;/i&gt;" style="swimlane;fontStyle=0;childLayout=stackLayout;horizontal=1;startSize=38;fillColor=none;horizontalStack=0;resizeParent=1;resizeParentMax=0;resizeLast=0;collapsible=1;marginBottom=0;whiteSpace=wrap;html=1;textShadow=0;" parent="WIyWlLk6GJQsqaUBKTNV-1" vertex="1">
          <mxGeometry x="-90" y="350" width="210" height="142" as="geometry" />
        </mxCell>
        <mxCell id="QOI_mtyACLwpcaI7UE1c-16" value="+ Get(id: Guid): &lt;b&gt;Listing&lt;/b&gt;?" style="text;strokeColor=none;fillColor=none;align=left;verticalAlign=top;spacingLeft=4;spacingRight=4;overflow=hidden;rotatable=0;points=[[0,0.5],[1,0.5]];portConstraint=eastwest;whiteSpace=wrap;html=1;" parent="QOI_mtyACLwpcaI7UE1c-14" vertex="1">
          <mxGeometry y="38" width="210" height="26" as="geometry" />
        </mxCell>
        <mxCell id="QOI_mtyACLwpcaI7UE1c-15" value="+ Add(listing:&lt;b&gt;Listing&lt;/b&gt;): bool" style="text;strokeColor=none;fillColor=none;align=left;verticalAlign=top;spacingLeft=4;spacingRight=4;overflow=hidden;rotatable=0;points=[[0,0.5],[1,0.5]];portConstraint=eastwest;whiteSpace=wrap;html=1;" parent="QOI_mtyACLwpcaI7UE1c-14" vertex="1">
          <mxGeometry y="64" width="210" height="26" as="geometry" />
        </mxCell>
        <mxCell id="QOI_mtyACLwpcaI7UE1c-18" value="+ Edit(id: Guid, listing:&lt;b&gt;Listing&lt;/b&gt;):bool" style="text;strokeColor=none;fillColor=none;align=left;verticalAlign=top;spacingLeft=4;spacingRight=4;overflow=hidden;rotatable=0;points=[[0,0.5],[1,0.5]];portConstraint=eastwest;whiteSpace=wrap;html=1;" parent="QOI_mtyACLwpcaI7UE1c-14" vertex="1">
          <mxGeometry y="90" width="210" height="26" as="geometry" />
        </mxCell>
        <mxCell id="QOI_mtyACLwpcaI7UE1c-17" value="+ Remove(id: Guid): bool" style="text;strokeColor=none;fillColor=none;align=left;verticalAlign=top;spacingLeft=4;spacingRight=4;overflow=hidden;rotatable=0;points=[[0,0.5],[1,0.5]];portConstraint=eastwest;whiteSpace=wrap;html=1;" parent="QOI_mtyACLwpcaI7UE1c-14" vertex="1">
          <mxGeometry y="116" width="210" height="26" as="geometry" />
        </mxCell>
        <mxCell id="QOI_mtyACLwpcaI7UE1c-39" value="&lt;i&gt;&amp;lt;&amp;lt;interface&amp;gt;&amp;gt;&lt;br&gt;&lt;b&gt;IPetRepository&lt;/b&gt;&lt;/i&gt;" style="swimlane;fontStyle=0;childLayout=stackLayout;horizontal=1;startSize=38;fillColor=none;horizontalStack=0;resizeParent=1;resizeParentMax=0;resizeLast=0;collapsible=1;marginBottom=0;whiteSpace=wrap;html=1;textShadow=0;" parent="WIyWlLk6GJQsqaUBKTNV-1" vertex="1">
          <mxGeometry x="140" y="350" width="210" height="142" as="geometry" />
        </mxCell>
        <mxCell id="QOI_mtyACLwpcaI7UE1c-43" value="+ Get(id: Guid): &lt;b&gt;Pet&lt;/b&gt;?" style="text;strokeColor=none;fillColor=none;align=left;verticalAlign=top;spacingLeft=4;spacingRight=4;overflow=hidden;rotatable=0;points=[[0,0.5],[1,0.5]];portConstraint=eastwest;whiteSpace=wrap;html=1;" parent="QOI_mtyACLwpcaI7UE1c-39" vertex="1">
          <mxGeometry y="38" width="210" height="26" as="geometry" />
        </mxCell>
        <mxCell id="QOI_mtyACLwpcaI7UE1c-40" value="+ Add(pet:&lt;b&gt;Pet&lt;/b&gt;): bool" style="text;strokeColor=none;fillColor=none;align=left;verticalAlign=top;spacingLeft=4;spacingRight=4;overflow=hidden;rotatable=0;points=[[0,0.5],[1,0.5]];portConstraint=eastwest;whiteSpace=wrap;html=1;" parent="QOI_mtyACLwpcaI7UE1c-39" vertex="1">
          <mxGeometry y="64" width="210" height="26" as="geometry" />
        </mxCell>
        <mxCell id="QOI_mtyACLwpcaI7UE1c-41" value="+ Edit(id: Guid, pet:&lt;b&gt;Pet&lt;/b&gt;):bool" style="text;strokeColor=none;fillColor=none;align=left;verticalAlign=top;spacingLeft=4;spacingRight=4;overflow=hidden;rotatable=0;points=[[0,0.5],[1,0.5]];portConstraint=eastwest;whiteSpace=wrap;html=1;" parent="QOI_mtyACLwpcaI7UE1c-39" vertex="1">
          <mxGeometry y="90" width="210" height="26" as="geometry" />
        </mxCell>
        <mxCell id="QOI_mtyACLwpcaI7UE1c-42" value="+ Remove(id: Guid): bool" style="text;strokeColor=none;fillColor=none;align=left;verticalAlign=top;spacingLeft=4;spacingRight=4;overflow=hidden;rotatable=0;points=[[0,0.5],[1,0.5]];portConstraint=eastwest;whiteSpace=wrap;html=1;" parent="QOI_mtyACLwpcaI7UE1c-39" vertex="1">
          <mxGeometry y="116" width="210" height="26" as="geometry" />
        </mxCell>
        <mxCell id="QOI_mtyACLwpcaI7UE1c-44" value="&lt;i&gt;&amp;lt;&amp;lt;interface&amp;gt;&amp;gt;&lt;br&gt;&lt;b&gt;IUserRepository&lt;/b&gt;&lt;/i&gt;" style="swimlane;fontStyle=0;childLayout=stackLayout;horizontal=1;startSize=38;fillColor=none;horizontalStack=0;resizeParent=1;resizeParentMax=0;resizeLast=0;collapsible=1;marginBottom=0;whiteSpace=wrap;html=1;textShadow=0;" parent="WIyWlLk6GJQsqaUBKTNV-1" vertex="1">
          <mxGeometry x="617" y="350" width="210" height="142" as="geometry" />
        </mxCell>
        <mxCell id="QOI_mtyACLwpcaI7UE1c-48" value="+ Get(id: Guid): &lt;b&gt;User&lt;/b&gt;?" style="text;strokeColor=none;fillColor=none;align=left;verticalAlign=top;spacingLeft=4;spacingRight=4;overflow=hidden;rotatable=0;points=[[0,0.5],[1,0.5]];portConstraint=eastwest;whiteSpace=wrap;html=1;" parent="QOI_mtyACLwpcaI7UE1c-44" vertex="1">
          <mxGeometry y="38" width="210" height="26" as="geometry" />
        </mxCell>
        <mxCell id="QOI_mtyACLwpcaI7UE1c-45" value="+ Add(user:&lt;b&gt;User&lt;/b&gt;): bool" style="text;strokeColor=none;fillColor=none;align=left;verticalAlign=top;spacingLeft=4;spacingRight=4;overflow=hidden;rotatable=0;points=[[0,0.5],[1,0.5]];portConstraint=eastwest;whiteSpace=wrap;html=1;" parent="QOI_mtyACLwpcaI7UE1c-44" vertex="1">
          <mxGeometry y="64" width="210" height="26" as="geometry" />
        </mxCell>
        <mxCell id="QOI_mtyACLwpcaI7UE1c-46" value="+ Edit(id: Guid, user:&lt;b&gt;User&lt;/b&gt;):bool" style="text;strokeColor=none;fillColor=none;align=left;verticalAlign=top;spacingLeft=4;spacingRight=4;overflow=hidden;rotatable=0;points=[[0,0.5],[1,0.5]];portConstraint=eastwest;whiteSpace=wrap;html=1;" parent="QOI_mtyACLwpcaI7UE1c-44" vertex="1">
          <mxGeometry y="90" width="210" height="26" as="geometry" />
        </mxCell>
        <mxCell id="QOI_mtyACLwpcaI7UE1c-47" value="+ Remove(id: Guid): bool" style="text;strokeColor=none;fillColor=none;align=left;verticalAlign=top;spacingLeft=4;spacingRight=4;overflow=hidden;rotatable=0;points=[[0,0.5],[1,0.5]];portConstraint=eastwest;whiteSpace=wrap;html=1;" parent="QOI_mtyACLwpcaI7UE1c-44" vertex="1">
          <mxGeometry y="116" width="210" height="26" as="geometry" />
        </mxCell>
        <mxCell id="QOI_mtyACLwpcaI7UE1c-49" value="&lt;i&gt;&amp;lt;&amp;lt;interface&amp;gt;&amp;gt;&lt;br&gt;&lt;b&gt;IManagerRepository&lt;/b&gt;&lt;/i&gt;" style="swimlane;fontStyle=0;childLayout=stackLayout;horizontal=1;startSize=38;fillColor=none;horizontalStack=0;resizeParent=1;resizeParentMax=0;resizeLast=0;collapsible=1;marginBottom=0;whiteSpace=wrap;html=1;textShadow=0;" parent="WIyWlLk6GJQsqaUBKTNV-1" vertex="1">
          <mxGeometry x="367" y="350" width="240" height="142" as="geometry" />
        </mxCell>
        <mxCell id="QOI_mtyACLwpcaI7UE1c-50" value="+ Get(id: Guid): &lt;b&gt;Manager&lt;/b&gt;?" style="text;strokeColor=none;fillColor=none;align=left;verticalAlign=top;spacingLeft=4;spacingRight=4;overflow=hidden;rotatable=0;points=[[0,0.5],[1,0.5]];portConstraint=eastwest;whiteSpace=wrap;html=1;" parent="QOI_mtyACLwpcaI7UE1c-49" vertex="1">
          <mxGeometry y="38" width="240" height="26" as="geometry" />
        </mxCell>
        <mxCell id="QOI_mtyACLwpcaI7UE1c-51" value="+ Add(manager:&lt;b&gt;Manager&lt;/b&gt;): bool" style="text;strokeColor=none;fillColor=none;align=left;verticalAlign=top;spacingLeft=4;spacingRight=4;overflow=hidden;rotatable=0;points=[[0,0.5],[1,0.5]];portConstraint=eastwest;whiteSpace=wrap;html=1;" parent="QOI_mtyACLwpcaI7UE1c-49" vertex="1">
          <mxGeometry y="64" width="240" height="26" as="geometry" />
        </mxCell>
        <mxCell id="QOI_mtyACLwpcaI7UE1c-52" value="+ Edit(id: Guid, manager:&lt;b&gt;Manager&lt;/b&gt;):bool" style="text;strokeColor=none;fillColor=none;align=left;verticalAlign=top;spacingLeft=4;spacingRight=4;overflow=hidden;rotatable=0;points=[[0,0.5],[1,0.5]];portConstraint=eastwest;whiteSpace=wrap;html=1;" parent="QOI_mtyACLwpcaI7UE1c-49" vertex="1">
          <mxGeometry y="90" width="240" height="26" as="geometry" />
        </mxCell>
        <mxCell id="QOI_mtyACLwpcaI7UE1c-53" value="+ Remove(id: Guid): bool" style="text;strokeColor=none;fillColor=none;align=left;verticalAlign=top;spacingLeft=4;spacingRight=4;overflow=hidden;rotatable=0;points=[[0,0.5],[1,0.5]];portConstraint=eastwest;whiteSpace=wrap;html=1;" parent="QOI_mtyACLwpcaI7UE1c-49" vertex="1">
          <mxGeometry y="116" width="240" height="26" as="geometry" />
        </mxCell>
        <mxCell id="QOI_mtyACLwpcaI7UE1c-54" value="&lt;p style=&quot;margin:0px;margin-top:4px;text-align:center;&quot;&gt;&lt;b&gt;PetRepositoryDb&lt;/b&gt;&lt;/p&gt;&lt;hr size=&quot;1&quot; style=&quot;border-style:solid;&quot;&gt;&lt;div style=&quot;height:2px;&quot;&gt;&lt;/div&gt;" style="verticalAlign=top;align=left;overflow=fill;html=1;whiteSpace=wrap;" parent="WIyWlLk6GJQsqaUBKTNV-1" vertex="1">
          <mxGeometry x="140" y="526" width="210" height="60" as="geometry" />
        </mxCell>
        <mxCell id="QOI_mtyACLwpcaI7UE1c-55" value="&lt;p style=&quot;margin:0px;margin-top:4px;text-align:center;&quot;&gt;&lt;b&gt;ListingRepositoryDb&lt;/b&gt;&lt;/p&gt;&lt;hr size=&quot;1&quot; style=&quot;border-style:solid;&quot;&gt;&lt;div style=&quot;height:2px;&quot;&gt;&lt;/div&gt;" style="verticalAlign=top;align=left;overflow=fill;html=1;whiteSpace=wrap;" parent="WIyWlLk6GJQsqaUBKTNV-1" vertex="1">
          <mxGeometry x="-90" y="526" width="210" height="60" as="geometry" />
        </mxCell>
        <mxCell id="QOI_mtyACLwpcaI7UE1c-56" value="&lt;p style=&quot;margin:0px;margin-top:4px;text-align:center;&quot;&gt;&lt;b&gt;UserRepositoryDb&lt;/b&gt;&lt;/p&gt;&lt;hr size=&quot;1&quot; style=&quot;border-style:solid;&quot;&gt;&lt;div style=&quot;height:2px;&quot;&gt;&lt;/div&gt;" style="verticalAlign=top;align=left;overflow=fill;html=1;whiteSpace=wrap;" parent="WIyWlLk6GJQsqaUBKTNV-1" vertex="1">
          <mxGeometry x="617" y="526" width="210" height="60" as="geometry" />
        </mxCell>
        <mxCell id="QOI_mtyACLwpcaI7UE1c-57" value="&lt;p style=&quot;margin:0px;margin-top:4px;text-align:center;&quot;&gt;&lt;b&gt;ManagerRepositoryDb&lt;/b&gt;&lt;/p&gt;&lt;hr size=&quot;1&quot; style=&quot;border-style:solid;&quot;&gt;&lt;div style=&quot;height:2px;&quot;&gt;&lt;/div&gt;" style="verticalAlign=top;align=left;overflow=fill;html=1;whiteSpace=wrap;" parent="WIyWlLk6GJQsqaUBKTNV-1" vertex="1">
          <mxGeometry x="367" y="526" width="240" height="60" as="geometry" />
        </mxCell>
        <mxCell id="QOI_mtyACLwpcaI7UE1c-58" value="" style="shape=flexArrow;endArrow=classic;html=1;rounded=0;exitX=0.5;exitY=0;exitDx=0;exitDy=0;entryX=0.499;entryY=1.008;entryDx=0;entryDy=0;entryPerimeter=0;" parent="WIyWlLk6GJQsqaUBKTNV-1" source="QOI_mtyACLwpcaI7UE1c-57" target="QOI_mtyACLwpcaI7UE1c-53" edge="1">
          <mxGeometry width="50" height="50" relative="1" as="geometry">
            <mxPoint x="357" y="490" as="sourcePoint" />
            <mxPoint x="407" y="440" as="targetPoint" />
          </mxGeometry>
        </mxCell>
        <mxCell id="QOI_mtyACLwpcaI7UE1c-60" value="" style="shape=flexArrow;endArrow=classic;html=1;rounded=0;exitX=0.5;exitY=0;exitDx=0;exitDy=0;entryX=0.5;entryY=1;entryDx=0;entryDy=0;" parent="WIyWlLk6GJQsqaUBKTNV-1" source="QOI_mtyACLwpcaI7UE1c-56" target="QOI_mtyACLwpcaI7UE1c-44" edge="1">
          <mxGeometry width="50" height="50" relative="1" as="geometry">
            <mxPoint x="477" y="546" as="sourcePoint" />
            <mxPoint x="477" y="512" as="targetPoint" />
          </mxGeometry>
        </mxCell>
        <mxCell id="QOI_mtyACLwpcaI7UE1c-61" value="" style="shape=flexArrow;endArrow=classic;html=1;rounded=0;exitX=0.5;exitY=0;exitDx=0;exitDy=0;entryX=0.5;entryY=1;entryDx=0;entryDy=0;" parent="WIyWlLk6GJQsqaUBKTNV-1" source="QOI_mtyACLwpcaI7UE1c-54" target="QOI_mtyACLwpcaI7UE1c-39" edge="1">
          <mxGeometry width="50" height="50" relative="1" as="geometry">
            <mxPoint x="487" y="556" as="sourcePoint" />
            <mxPoint x="487" y="522" as="targetPoint" />
          </mxGeometry>
        </mxCell>
        <mxCell id="QOI_mtyACLwpcaI7UE1c-62" value="" style="shape=flexArrow;endArrow=classic;html=1;rounded=0;exitX=0.5;exitY=0;exitDx=0;exitDy=0;entryX=0.5;entryY=1;entryDx=0;entryDy=0;" parent="WIyWlLk6GJQsqaUBKTNV-1" source="QOI_mtyACLwpcaI7UE1c-55" target="QOI_mtyACLwpcaI7UE1c-14" edge="1">
          <mxGeometry width="50" height="50" relative="1" as="geometry">
            <mxPoint x="497" y="566" as="sourcePoint" />
            <mxPoint x="497" y="532" as="targetPoint" />
          </mxGeometry>
        </mxCell>
        <mxCell id="QOI_mtyACLwpcaI7UE1c-70" value="&lt;i&gt;&amp;lt;&amp;lt;interface&amp;gt;&amp;gt;&lt;br&gt;&lt;b&gt;IPetService&lt;/b&gt;&lt;/i&gt;" style="swimlane;fontStyle=0;childLayout=stackLayout;horizontal=1;startSize=38;fillColor=none;horizontalStack=0;resizeParent=1;resizeParentMax=0;resizeLast=0;collapsible=1;marginBottom=0;whiteSpace=wrap;html=1;textShadow=0;" parent="WIyWlLk6GJQsqaUBKTNV-1" vertex="1">
          <mxGeometry x="180" y="780" width="210" height="246" as="geometry" />
        </mxCell>
        <mxCell id="QOI_mtyACLwpcaI7UE1c-71" value="+ Get(id: Guid): &lt;b&gt;Pet&lt;/b&gt;?" style="text;strokeColor=none;fillColor=none;align=left;verticalAlign=top;spacingLeft=4;spacingRight=4;overflow=hidden;rotatable=0;points=[[0,0.5],[1,0.5]];portConstraint=eastwest;whiteSpace=wrap;html=1;" parent="QOI_mtyACLwpcaI7UE1c-70" vertex="1">
          <mxGeometry y="38" width="210" height="26" as="geometry" />
        </mxCell>
        <mxCell id="QOI_mtyACLwpcaI7UE1c-74" value="+ Add(pet:&lt;b&gt;Pet&lt;/b&gt;): bool" style="text;strokeColor=none;fillColor=none;align=left;verticalAlign=top;spacingLeft=4;spacingRight=4;overflow=hidden;rotatable=0;points=[[0,0.5],[1,0.5]];portConstraint=eastwest;whiteSpace=wrap;html=1;" parent="QOI_mtyACLwpcaI7UE1c-70" vertex="1">
          <mxGeometry y="64" width="210" height="26" as="geometry" />
        </mxCell>
        <mxCell id="QOI_mtyACLwpcaI7UE1c-73" value="+ Edit(id: Guid, pet:&lt;b&gt;Pet&lt;/b&gt;):bool" style="text;strokeColor=none;fillColor=none;align=left;verticalAlign=top;spacingLeft=4;spacingRight=4;overflow=hidden;rotatable=0;points=[[0,0.5],[1,0.5]];portConstraint=eastwest;whiteSpace=wrap;html=1;" parent="QOI_mtyACLwpcaI7UE1c-70" vertex="1">
          <mxGeometry y="90" width="210" height="26" as="geometry" />
        </mxCell>
        <mxCell id="QOI_mtyACLwpcaI7UE1c-72" value="+ Remove(id: Guid): bool" style="text;strokeColor=none;fillColor=none;align=left;verticalAlign=top;spacingLeft=4;spacingRight=4;overflow=hidden;rotatable=0;points=[[0,0.5],[1,0.5]];portConstraint=eastwest;whiteSpace=wrap;html=1;" parent="QOI_mtyACLwpcaI7UE1c-70" vertex="1">
          <mxGeometry y="116" width="210" height="26" as="geometry" />
        </mxCell>
        <mxCell id="QOI_mtyACLwpcaI7UE1c-87" value="+ GetByName(name: string): &lt;b&gt;Pet&lt;/b&gt;?" style="text;strokeColor=none;fillColor=none;align=left;verticalAlign=top;spacingLeft=4;spacingRight=4;overflow=hidden;rotatable=0;points=[[0,0.5],[1,0.5]];portConstraint=eastwest;whiteSpace=wrap;html=1;" parent="QOI_mtyACLwpcaI7UE1c-70" vertex="1">
          <mxGeometry y="142" width="210" height="26" as="geometry" />
        </mxCell>
        <mxCell id="QOI_mtyACLwpcaI7UE1c-86" value="+ GetByAge(age: uint): &lt;b&gt;Pet&lt;/b&gt;?" style="text;strokeColor=none;fillColor=none;align=left;verticalAlign=top;spacingLeft=4;spacingRight=4;overflow=hidden;rotatable=0;points=[[0,0.5],[1,0.5]];portConstraint=eastwest;whiteSpace=wrap;html=1;" parent="QOI_mtyACLwpcaI7UE1c-70" vertex="1">
          <mxGeometry y="168" width="210" height="26" as="geometry" />
        </mxCell>
        <mxCell id="QOI_mtyACLwpcaI7UE1c-97" value="+ GetAll(): List&amp;lt;&lt;b&gt;Pet&lt;/b&gt;&amp;gt;?" style="text;strokeColor=none;fillColor=none;align=left;verticalAlign=top;spacingLeft=4;spacingRight=4;overflow=hidden;rotatable=0;points=[[0,0.5],[1,0.5]];portConstraint=eastwest;whiteSpace=wrap;html=1;" parent="QOI_mtyACLwpcaI7UE1c-70" vertex="1">
          <mxGeometry y="194" width="210" height="26" as="geometry" />
        </mxCell>
        <mxCell id="QOI_mtyACLwpcaI7UE1c-85" value="+ SortBy(property: string): List&amp;lt;&lt;b&gt;Pet&lt;/b&gt;?&amp;gt;" style="text;strokeColor=none;fillColor=none;align=left;verticalAlign=top;spacingLeft=4;spacingRight=4;overflow=hidden;rotatable=0;points=[[0,0.5],[1,0.5]];portConstraint=eastwest;whiteSpace=wrap;html=1;" parent="QOI_mtyACLwpcaI7UE1c-70" vertex="1">
          <mxGeometry y="220" width="210" height="26" as="geometry" />
        </mxCell>
        <mxCell id="QOI_mtyACLwpcaI7UE1c-75" value="&lt;i&gt;&amp;lt;&amp;lt;interface&amp;gt;&amp;gt;&lt;br&gt;&lt;b&gt;IListingService&lt;/b&gt;&lt;/i&gt;" style="swimlane;fontStyle=0;childLayout=stackLayout;horizontal=1;startSize=38;fillColor=none;horizontalStack=0;resizeParent=1;resizeParentMax=0;resizeLast=0;collapsible=1;marginBottom=0;whiteSpace=wrap;html=1;textShadow=0;" parent="WIyWlLk6GJQsqaUBKTNV-1" vertex="1">
          <mxGeometry x="-90" y="780" width="260" height="230" as="geometry" />
        </mxCell>
        <mxCell id="QOI_mtyACLwpcaI7UE1c-76" value="+ Get(id: Guid): &lt;b&gt;Listing&lt;/b&gt;?" style="text;strokeColor=none;fillColor=none;align=left;verticalAlign=top;spacingLeft=4;spacingRight=4;overflow=hidden;rotatable=0;points=[[0,0.5],[1,0.5]];portConstraint=eastwest;whiteSpace=wrap;html=1;" parent="QOI_mtyACLwpcaI7UE1c-75" vertex="1">
          <mxGeometry y="38" width="260" height="26" as="geometry" />
        </mxCell>
        <mxCell id="QOI_mtyACLwpcaI7UE1c-77" value="+ Add(pet:&lt;b&gt;Listing&lt;/b&gt;): bool" style="text;strokeColor=none;fillColor=none;align=left;verticalAlign=top;spacingLeft=4;spacingRight=4;overflow=hidden;rotatable=0;points=[[0,0.5],[1,0.5]];portConstraint=eastwest;whiteSpace=wrap;html=1;" parent="QOI_mtyACLwpcaI7UE1c-75" vertex="1">
          <mxGeometry y="64" width="260" height="26" as="geometry" />
        </mxCell>
        <mxCell id="QOI_mtyACLwpcaI7UE1c-78" value="+ Edit(id: Guid, pet:&lt;b&gt;Listing&lt;/b&gt;):bool" style="text;strokeColor=none;fillColor=none;align=left;verticalAlign=top;spacingLeft=4;spacingRight=4;overflow=hidden;rotatable=0;points=[[0,0.5],[1,0.5]];portConstraint=eastwest;whiteSpace=wrap;html=1;" parent="QOI_mtyACLwpcaI7UE1c-75" vertex="1">
          <mxGeometry y="90" width="260" height="26" as="geometry" />
        </mxCell>
        <mxCell id="QOI_mtyACLwpcaI7UE1c-79" value="+ Remove(id: Guid): bool" style="text;strokeColor=none;fillColor=none;align=left;verticalAlign=top;spacingLeft=4;spacingRight=4;overflow=hidden;rotatable=0;points=[[0,0.5],[1,0.5]];portConstraint=eastwest;whiteSpace=wrap;html=1;" parent="QOI_mtyACLwpcaI7UE1c-75" vertex="1">
          <mxGeometry y="116" width="260" height="26" as="geometry" />
        </mxCell>
        <mxCell id="QOI_mtyACLwpcaI7UE1c-88" value="+ GetByTitle(title: string): &lt;b&gt;Listing&lt;/b&gt;?" style="text;strokeColor=none;fillColor=none;align=left;verticalAlign=top;spacingLeft=4;spacingRight=4;overflow=hidden;rotatable=0;points=[[0,0.5],[1,0.5]];portConstraint=eastwest;whiteSpace=wrap;html=1;" parent="QOI_mtyACLwpcaI7UE1c-75" vertex="1">
          <mxGeometry y="142" width="260" height="26" as="geometry" />
        </mxCell>
        <mxCell id="QOI_mtyACLwpcaI7UE1c-89" value="+ GetByPetType(type: &lt;b&gt;PetType&lt;/b&gt;): List&amp;lt;&lt;b&gt;Listing&lt;/b&gt;&amp;gt;" style="text;strokeColor=none;fillColor=none;align=left;verticalAlign=top;spacingLeft=4;spacingRight=4;overflow=hidden;rotatable=0;points=[[0,0.5],[1,0.5]];portConstraint=eastwest;whiteSpace=wrap;html=1;" parent="QOI_mtyACLwpcaI7UE1c-75" vertex="1">
          <mxGeometry y="168" width="260" height="32" as="geometry" />
        </mxCell>
        <mxCell id="QOI_mtyACLwpcaI7UE1c-98" value="+GetAll(): List&amp;lt;&lt;b&gt;Listing&lt;/b&gt;&amp;gt;?" style="text;strokeColor=none;fillColor=none;align=left;verticalAlign=top;spacingLeft=4;spacingRight=4;overflow=hidden;rotatable=0;points=[[0,0.5],[1,0.5]];portConstraint=eastwest;whiteSpace=wrap;html=1;" parent="QOI_mtyACLwpcaI7UE1c-75" vertex="1">
          <mxGeometry y="200" width="260" height="30" as="geometry" />
        </mxCell>
        <mxCell id="QOI_mtyACLwpcaI7UE1c-80" value="&lt;i&gt;&amp;lt;&amp;lt;interface&amp;gt;&amp;gt;&lt;br&gt;&lt;b&gt;IUserService&lt;/b&gt;&lt;/i&gt;" style="swimlane;fontStyle=0;childLayout=stackLayout;horizontal=1;startSize=38;fillColor=none;horizontalStack=0;resizeParent=1;resizeParentMax=0;resizeLast=0;collapsible=1;marginBottom=0;whiteSpace=wrap;html=1;textShadow=0;" parent="WIyWlLk6GJQsqaUBKTNV-1" vertex="1">
          <mxGeometry x="647" y="780" width="180" height="168" as="geometry" />
        </mxCell>
        <mxCell id="QOI_mtyACLwpcaI7UE1c-81" value="+ Get(id: Guid): &lt;b&gt;User&lt;/b&gt;?" style="text;strokeColor=none;fillColor=none;align=left;verticalAlign=top;spacingLeft=4;spacingRight=4;overflow=hidden;rotatable=0;points=[[0,0.5],[1,0.5]];portConstraint=eastwest;whiteSpace=wrap;html=1;" parent="QOI_mtyACLwpcaI7UE1c-80" vertex="1">
          <mxGeometry y="38" width="180" height="26" as="geometry" />
        </mxCell>
        <mxCell id="QOI_mtyACLwpcaI7UE1c-82" value="+ Add(user:&lt;b&gt;User&lt;/b&gt;): bool" style="text;strokeColor=none;fillColor=none;align=left;verticalAlign=top;spacingLeft=4;spacingRight=4;overflow=hidden;rotatable=0;points=[[0,0.5],[1,0.5]];portConstraint=eastwest;whiteSpace=wrap;html=1;" parent="QOI_mtyACLwpcaI7UE1c-80" vertex="1">
          <mxGeometry y="64" width="180" height="26" as="geometry" />
        </mxCell>
        <mxCell id="QOI_mtyACLwpcaI7UE1c-83" value="+ Edit(id: Guid, user:&lt;b&gt;User&lt;/b&gt;):bool" style="text;strokeColor=none;fillColor=none;align=left;verticalAlign=top;spacingLeft=4;spacingRight=4;overflow=hidden;rotatable=0;points=[[0,0.5],[1,0.5]];portConstraint=eastwest;whiteSpace=wrap;html=1;" parent="QOI_mtyACLwpcaI7UE1c-80" vertex="1">
          <mxGeometry y="90" width="180" height="26" as="geometry" />
        </mxCell>
        <mxCell id="QOI_mtyACLwpcaI7UE1c-84" value="+ Remove(id: Guid): bool" style="text;strokeColor=none;fillColor=none;align=left;verticalAlign=top;spacingLeft=4;spacingRight=4;overflow=hidden;rotatable=0;points=[[0,0.5],[1,0.5]];portConstraint=eastwest;whiteSpace=wrap;html=1;" parent="QOI_mtyACLwpcaI7UE1c-80" vertex="1">
          <mxGeometry y="116" width="180" height="26" as="geometry" />
        </mxCell>
        <mxCell id="QOI_mtyACLwpcaI7UE1c-95" value="+ GetAll(): List&amp;lt;&lt;b&gt;User&lt;/b&gt;&amp;gt;?" style="text;strokeColor=none;fillColor=none;align=left;verticalAlign=top;spacingLeft=4;spacingRight=4;overflow=hidden;rotatable=0;points=[[0,0.5],[1,0.5]];portConstraint=eastwest;whiteSpace=wrap;html=1;" parent="QOI_mtyACLwpcaI7UE1c-80" vertex="1">
          <mxGeometry y="142" width="180" height="26" as="geometry" />
        </mxCell>
        <mxCell id="QOI_mtyACLwpcaI7UE1c-99" value="&lt;i&gt;&amp;lt;&amp;lt;interface&amp;gt;&amp;gt;&lt;br&gt;&lt;b&gt;IManagerService&lt;/b&gt;&lt;/i&gt;" style="swimlane;fontStyle=0;childLayout=stackLayout;horizontal=1;startSize=38;fillColor=none;horizontalStack=0;resizeParent=1;resizeParentMax=0;resizeLast=0;collapsible=1;marginBottom=0;whiteSpace=wrap;html=1;textShadow=0;" parent="WIyWlLk6GJQsqaUBKTNV-1" vertex="1">
          <mxGeometry x="400" y="780" width="230" height="168" as="geometry" />
        </mxCell>
        <mxCell id="QOI_mtyACLwpcaI7UE1c-100" value="+ Get(id: Guid): &lt;b&gt;Manager&lt;/b&gt;?" style="text;strokeColor=none;fillColor=none;align=left;verticalAlign=top;spacingLeft=4;spacingRight=4;overflow=hidden;rotatable=0;points=[[0,0.5],[1,0.5]];portConstraint=eastwest;whiteSpace=wrap;html=1;" parent="QOI_mtyACLwpcaI7UE1c-99" vertex="1">
          <mxGeometry y="38" width="230" height="26" as="geometry" />
        </mxCell>
        <mxCell id="QOI_mtyACLwpcaI7UE1c-101" value="+ Add(manager:&lt;b&gt;Manager&lt;/b&gt;): bool" style="text;strokeColor=none;fillColor=none;align=left;verticalAlign=top;spacingLeft=4;spacingRight=4;overflow=hidden;rotatable=0;points=[[0,0.5],[1,0.5]];portConstraint=eastwest;whiteSpace=wrap;html=1;" parent="QOI_mtyACLwpcaI7UE1c-99" vertex="1">
          <mxGeometry y="64" width="230" height="26" as="geometry" />
        </mxCell>
        <mxCell id="QOI_mtyACLwpcaI7UE1c-102" value="+ Edit(id: Guid, manager:&lt;b&gt;Manager&lt;/b&gt;):bool" style="text;strokeColor=none;fillColor=none;align=left;verticalAlign=top;spacingLeft=4;spacingRight=4;overflow=hidden;rotatable=0;points=[[0,0.5],[1,0.5]];portConstraint=eastwest;whiteSpace=wrap;html=1;" parent="QOI_mtyACLwpcaI7UE1c-99" vertex="1">
          <mxGeometry y="90" width="230" height="26" as="geometry" />
        </mxCell>
        <mxCell id="QOI_mtyACLwpcaI7UE1c-103" value="+ Remove(id: Guid): bool" style="text;strokeColor=none;fillColor=none;align=left;verticalAlign=top;spacingLeft=4;spacingRight=4;overflow=hidden;rotatable=0;points=[[0,0.5],[1,0.5]];portConstraint=eastwest;whiteSpace=wrap;html=1;" parent="QOI_mtyACLwpcaI7UE1c-99" vertex="1">
          <mxGeometry y="116" width="230" height="26" as="geometry" />
        </mxCell>
        <mxCell id="QOI_mtyACLwpcaI7UE1c-104" value="+ GetAll(): List&amp;lt;&lt;b&gt;Manager&lt;/b&gt;&amp;gt;?" style="text;strokeColor=none;fillColor=none;align=left;verticalAlign=top;spacingLeft=4;spacingRight=4;overflow=hidden;rotatable=0;points=[[0,0.5],[1,0.5]];portConstraint=eastwest;whiteSpace=wrap;html=1;" parent="QOI_mtyACLwpcaI7UE1c-99" vertex="1">
          <mxGeometry y="142" width="230" height="26" as="geometry" />
        </mxCell>
        <mxCell id="QOI_mtyACLwpcaI7UE1c-105" value="&lt;p style=&quot;margin:0px;margin-top:4px;text-align:center;&quot;&gt;&lt;b&gt;PetService&lt;/b&gt;&lt;/p&gt;&lt;hr size=&quot;1&quot; style=&quot;border-style:solid;&quot;&gt;&lt;div style=&quot;height:2px;&quot;&gt;&lt;/div&gt;" style="verticalAlign=top;align=left;overflow=fill;html=1;whiteSpace=wrap;" parent="WIyWlLk6GJQsqaUBKTNV-1" vertex="1">
          <mxGeometry x="180" y="680" width="210" height="60" as="geometry" />
        </mxCell>
        <mxCell id="QOI_mtyACLwpcaI7UE1c-106" value="&lt;p style=&quot;margin:0px;margin-top:4px;text-align:center;&quot;&gt;&lt;b&gt;ListingService&lt;/b&gt;&lt;/p&gt;&lt;hr size=&quot;1&quot; style=&quot;border-style:solid;&quot;&gt;&lt;div style=&quot;height:2px;&quot;&gt;&lt;/div&gt;" style="verticalAlign=top;align=left;overflow=fill;html=1;whiteSpace=wrap;" parent="WIyWlLk6GJQsqaUBKTNV-1" vertex="1">
          <mxGeometry x="-90" y="680" width="260" height="60" as="geometry" />
        </mxCell>
        <mxCell id="QOI_mtyACLwpcaI7UE1c-107" value="&lt;p style=&quot;margin:0px;margin-top:4px;text-align:center;&quot;&gt;&lt;b&gt;UserService&lt;/b&gt;&lt;/p&gt;&lt;hr size=&quot;1&quot; style=&quot;border-style:solid;&quot;&gt;&lt;div style=&quot;height:2px;&quot;&gt;&lt;/div&gt;" style="verticalAlign=top;align=left;overflow=fill;html=1;whiteSpace=wrap;" parent="WIyWlLk6GJQsqaUBKTNV-1" vertex="1">
          <mxGeometry x="647" y="680" width="180" height="60" as="geometry" />
        </mxCell>
        <mxCell id="QOI_mtyACLwpcaI7UE1c-108" value="&lt;p style=&quot;margin:0px;margin-top:4px;text-align:center;&quot;&gt;&lt;b&gt;ManagerService&lt;/b&gt;&lt;/p&gt;&lt;hr size=&quot;1&quot; style=&quot;border-style:solid;&quot;&gt;&lt;div style=&quot;height:2px;&quot;&gt;&lt;/div&gt;" style="verticalAlign=top;align=left;overflow=fill;html=1;whiteSpace=wrap;" parent="WIyWlLk6GJQsqaUBKTNV-1" vertex="1">
          <mxGeometry x="400" y="680" width="230" height="60" as="geometry" />
        </mxCell>
        <mxCell id="QOI_mtyACLwpcaI7UE1c-109" value="" style="shape=flexArrow;endArrow=classic;html=1;rounded=0;exitX=0.5;exitY=1;exitDx=0;exitDy=0;entryX=0.5;entryY=0;entryDx=0;entryDy=0;" parent="WIyWlLk6GJQsqaUBKTNV-1" source="QOI_mtyACLwpcaI7UE1c-105" target="QOI_mtyACLwpcaI7UE1c-70" edge="1">
          <mxGeometry width="50" height="50" relative="1" as="geometry">
            <mxPoint x="690" y="710" as="sourcePoint" />
            <mxPoint x="740" y="660" as="targetPoint" />
          </mxGeometry>
        </mxCell>
        <mxCell id="QOI_mtyACLwpcaI7UE1c-110" value="" style="shape=flexArrow;endArrow=classic;html=1;rounded=0;exitX=0.531;exitY=1.008;exitDx=0;exitDy=0;exitPerimeter=0;" parent="WIyWlLk6GJQsqaUBKTNV-1" source="QOI_mtyACLwpcaI7UE1c-106" edge="1">
          <mxGeometry width="50" height="50" relative="1" as="geometry">
            <mxPoint x="150" y="710" as="sourcePoint" />
            <mxPoint x="48" y="780" as="targetPoint" />
          </mxGeometry>
        </mxCell>
        <mxCell id="QOI_mtyACLwpcaI7UE1c-112" value="" style="shape=flexArrow;endArrow=classic;html=1;rounded=0;exitX=0.5;exitY=1;exitDx=0;exitDy=0;entryX=0.5;entryY=0;entryDx=0;entryDy=0;" parent="WIyWlLk6GJQsqaUBKTNV-1" source="QOI_mtyACLwpcaI7UE1c-107" target="QOI_mtyACLwpcaI7UE1c-80" edge="1">
          <mxGeometry width="50" height="50" relative="1" as="geometry">
            <mxPoint x="610" y="710" as="sourcePoint" />
            <mxPoint x="660" y="660" as="targetPoint" />
          </mxGeometry>
        </mxCell>
        <mxCell id="QOI_mtyACLwpcaI7UE1c-113" value="" style="shape=flexArrow;endArrow=classic;html=1;rounded=0;exitX=0.5;exitY=1;exitDx=0;exitDy=0;entryX=0.5;entryY=0;entryDx=0;entryDy=0;" parent="WIyWlLk6GJQsqaUBKTNV-1" source="QOI_mtyACLwpcaI7UE1c-108" target="QOI_mtyACLwpcaI7UE1c-99" edge="1">
          <mxGeometry width="50" height="50" relative="1" as="geometry">
            <mxPoint x="140" y="710" as="sourcePoint" />
            <mxPoint x="190" y="660" as="targetPoint" />
          </mxGeometry>
        </mxCell>
        <mxCell id="JLo4Q6kX8qBoDpfFDuiR-11" style="edgeStyle=orthogonalEdgeStyle;rounded=0;orthogonalLoop=1;jettySize=auto;html=1;exitX=0.25;exitY=1;exitDx=0;exitDy=0;entryX=0.049;entryY=-0.017;entryDx=0;entryDy=0;entryPerimeter=0;" edge="1" parent="WIyWlLk6GJQsqaUBKTNV-1" source="QOI_mtyACLwpcaI7UE1c-54" target="QOI_mtyACLwpcaI7UE1c-105">
          <mxGeometry relative="1" as="geometry">
            <Array as="points">
              <mxPoint x="193" y="610" />
              <mxPoint x="190" y="610" />
            </Array>
          </mxGeometry>
        </mxCell>
        <mxCell id="Xqw9TupCXsWvH2nCgGzY-2" value="used by" style="edgeLabel;html=1;align=center;verticalAlign=middle;resizable=0;points=[];" vertex="1" connectable="0" parent="JLo4Q6kX8qBoDpfFDuiR-11">
          <mxGeometry x="0.0759" y="-1" relative="1" as="geometry">
            <mxPoint as="offset" />
          </mxGeometry>
        </mxCell>
        <mxCell id="JLo4Q6kX8qBoDpfFDuiR-12" style="edgeStyle=orthogonalEdgeStyle;rounded=0;orthogonalLoop=1;jettySize=auto;html=1;exitX=0.75;exitY=1;exitDx=0;exitDy=0;entryX=0.67;entryY=0.023;entryDx=0;entryDy=0;entryPerimeter=0;" edge="1" parent="WIyWlLk6GJQsqaUBKTNV-1" source="QOI_mtyACLwpcaI7UE1c-55" target="QOI_mtyACLwpcaI7UE1c-106">
          <mxGeometry relative="1" as="geometry">
            <Array as="points">
              <mxPoint x="68" y="660" />
              <mxPoint x="84" y="660" />
            </Array>
          </mxGeometry>
        </mxCell>
        <mxCell id="Xqw9TupCXsWvH2nCgGzY-3" value="used by" style="edgeLabel;html=1;align=center;verticalAlign=middle;resizable=0;points=[];" vertex="1" connectable="0" parent="JLo4Q6kX8qBoDpfFDuiR-12">
          <mxGeometry x="-0.0721" y="1" relative="1" as="geometry">
            <mxPoint as="offset" />
          </mxGeometry>
        </mxCell>
        <mxCell id="JLo4Q6kX8qBoDpfFDuiR-13" style="edgeStyle=orthogonalEdgeStyle;rounded=0;orthogonalLoop=1;jettySize=auto;html=1;exitX=0.75;exitY=1;exitDx=0;exitDy=0;entryX=0.552;entryY=0;entryDx=0;entryDy=0;entryPerimeter=0;" edge="1" parent="WIyWlLk6GJQsqaUBKTNV-1" source="QOI_mtyACLwpcaI7UE1c-57" target="QOI_mtyACLwpcaI7UE1c-108">
          <mxGeometry relative="1" as="geometry" />
        </mxCell>
        <mxCell id="Xqw9TupCXsWvH2nCgGzY-0" value="used by" style="edgeLabel;html=1;align=center;verticalAlign=middle;resizable=0;points=[];" vertex="1" connectable="0" parent="JLo4Q6kX8qBoDpfFDuiR-13">
          <mxGeometry x="0.3333" y="1" relative="1" as="geometry">
            <mxPoint as="offset" />
          </mxGeometry>
        </mxCell>
        <mxCell id="JLo4Q6kX8qBoDpfFDuiR-14" style="edgeStyle=orthogonalEdgeStyle;rounded=0;orthogonalLoop=1;jettySize=auto;html=1;exitX=0.75;exitY=1;exitDx=0;exitDy=0;entryX=0.581;entryY=0.063;entryDx=0;entryDy=0;entryPerimeter=0;" edge="1" parent="WIyWlLk6GJQsqaUBKTNV-1">
          <mxGeometry relative="1" as="geometry">
            <mxPoint x="775.5" y="586" as="sourcePoint" />
            <mxPoint x="752.5799999999999" y="683.78" as="targetPoint" />
            <Array as="points">
              <mxPoint x="775" y="610" />
              <mxPoint x="753" y="610" />
            </Array>
          </mxGeometry>
        </mxCell>
        <mxCell id="Xqw9TupCXsWvH2nCgGzY-1" value="used by" style="edgeLabel;html=1;align=center;verticalAlign=middle;resizable=0;points=[];" vertex="1" connectable="0" parent="JLo4Q6kX8qBoDpfFDuiR-14">
          <mxGeometry x="0.1419" y="-1" relative="1" as="geometry">
            <mxPoint as="offset" />
          </mxGeometry>
        </mxCell>
        <mxCell id="JLo4Q6kX8qBoDpfFDuiR-15" value="" style="endArrow=none;html=1;rounded=0;entryX=0.5;entryY=1;entryDx=0;entryDy=0;exitX=0.85;exitY=0.05;exitDx=0;exitDy=0;exitPerimeter=0;" edge="1" parent="WIyWlLk6GJQsqaUBKTNV-1" source="QOI_mtyACLwpcaI7UE1c-1" target="QOI_mtyACLwpcaI7UE1c-57">
          <mxGeometry width="50" height="50" relative="1" as="geometry">
            <mxPoint x="337" y="720" as="sourcePoint" />
            <mxPoint x="387" y="670" as="targetPoint" />
          </mxGeometry>
        </mxCell>
        <mxCell id="Xqw9TupCXsWvH2nCgGzY-8" value="access" style="edgeLabel;html=1;align=center;verticalAlign=middle;resizable=0;points=[];" vertex="1" connectable="0" parent="JLo4Q6kX8qBoDpfFDuiR-15">
          <mxGeometry x="-0.4106" y="1" relative="1" as="geometry">
            <mxPoint as="offset" />
          </mxGeometry>
        </mxCell>
        <mxCell id="JLo4Q6kX8qBoDpfFDuiR-16" value="" style="endArrow=none;html=1;rounded=0;entryX=0.5;entryY=1;entryDx=0;entryDy=0;exitX=0.15;exitY=0.05;exitDx=0;exitDy=0;exitPerimeter=0;" edge="1" parent="WIyWlLk6GJQsqaUBKTNV-1" source="QOI_mtyACLwpcaI7UE1c-1" target="QOI_mtyACLwpcaI7UE1c-54">
          <mxGeometry width="50" height="50" relative="1" as="geometry">
            <mxPoint x="337" y="720" as="sourcePoint" />
            <mxPoint x="387" y="670" as="targetPoint" />
          </mxGeometry>
        </mxCell>
        <mxCell id="Xqw9TupCXsWvH2nCgGzY-5" value="access" style="edgeLabel;html=1;align=center;verticalAlign=middle;resizable=0;points=[];" vertex="1" connectable="0" parent="JLo4Q6kX8qBoDpfFDuiR-16">
          <mxGeometry x="-0.2702" y="-1" relative="1" as="geometry">
            <mxPoint as="offset" />
          </mxGeometry>
        </mxCell>
        <mxCell id="JLo4Q6kX8qBoDpfFDuiR-17" value="" style="endArrow=none;html=1;rounded=0;entryX=0.25;entryY=1;entryDx=0;entryDy=0;exitX=1;exitY=0.3;exitDx=0;exitDy=0;" edge="1" parent="WIyWlLk6GJQsqaUBKTNV-1" source="QOI_mtyACLwpcaI7UE1c-1" target="QOI_mtyACLwpcaI7UE1c-56">
          <mxGeometry width="50" height="50" relative="1" as="geometry">
            <mxPoint x="397" y="650" as="sourcePoint" />
            <mxPoint x="387" y="670" as="targetPoint" />
          </mxGeometry>
        </mxCell>
        <mxCell id="Xqw9TupCXsWvH2nCgGzY-7" value="access" style="edgeLabel;html=1;align=center;verticalAlign=middle;resizable=0;points=[];" vertex="1" connectable="0" parent="JLo4Q6kX8qBoDpfFDuiR-17">
          <mxGeometry x="-0.6305" y="-3" relative="1" as="geometry">
            <mxPoint y="-1" as="offset" />
          </mxGeometry>
        </mxCell>
        <mxCell id="JLo4Q6kX8qBoDpfFDuiR-18" value="" style="endArrow=none;html=1;rounded=0;entryX=0.5;entryY=1;entryDx=0;entryDy=0;exitX=0;exitY=0.3;exitDx=0;exitDy=0;" edge="1" parent="WIyWlLk6GJQsqaUBKTNV-1" source="QOI_mtyACLwpcaI7UE1c-1" target="QOI_mtyACLwpcaI7UE1c-55">
          <mxGeometry width="50" height="50" relative="1" as="geometry">
            <mxPoint x="337" y="720" as="sourcePoint" />
            <mxPoint x="387" y="670" as="targetPoint" />
          </mxGeometry>
        </mxCell>
        <mxCell id="Xqw9TupCXsWvH2nCgGzY-4" value="access" style="edgeLabel;html=1;align=center;verticalAlign=middle;resizable=0;points=[];" vertex="1" connectable="0" parent="JLo4Q6kX8qBoDpfFDuiR-18">
          <mxGeometry x="-0.586" y="-2" relative="1" as="geometry">
            <mxPoint as="offset" />
          </mxGeometry>
        </mxCell>
      </root>
    </mxGraphModel>
  </diagram>
  <diagram id="h-veQhLd9HI7QNBDQZeN" name="Identity">
    <mxGraphModel dx="1313" dy="663" grid="1" gridSize="10" guides="1" tooltips="1" connect="1" arrows="1" fold="1" page="1" pageScale="1" pageWidth="1169" pageHeight="827" math="0" shadow="0">
      <root>
        <mxCell id="0" />
        <mxCell id="1" parent="0" />
        <mxCell id="K1tfdDJ60ctjcK07l_BJ-1" value="User" style="swimlane;fontStyle=1;align=center;verticalAlign=top;childLayout=stackLayout;horizontal=1;startSize=26;horizontalStack=0;resizeParent=1;resizeParentMax=0;resizeLast=0;collapsible=1;marginBottom=0;whiteSpace=wrap;html=1;" vertex="1" parent="1">
          <mxGeometry x="630" y="380" width="290" height="156" as="geometry" />
        </mxCell>
        <mxCell id="K1tfdDJ60ctjcK07l_BJ-2" value="+ sendContacts(id: Guid, userCont: &lt;b&gt;Contacts&lt;/b&gt;): void" style="text;strokeColor=none;fillColor=none;align=left;verticalAlign=top;spacingLeft=4;spacingRight=4;overflow=hidden;rotatable=0;points=[[0,0.5],[1,0.5]];portConstraint=eastwest;whiteSpace=wrap;html=1;" vertex="1" parent="K1tfdDJ60ctjcK07l_BJ-1">
          <mxGeometry y="26" width="290" height="26" as="geometry" />
        </mxCell>
        <mxCell id="K1tfdDJ60ctjcK07l_BJ-3" value="+ receiveSentContacts(): List&amp;lt;&lt;b&gt;Contacts&lt;/b&gt;&amp;gt;" style="text;strokeColor=none;fillColor=none;align=left;verticalAlign=top;spacingLeft=4;spacingRight=4;overflow=hidden;rotatable=0;points=[[0,0.5],[1,0.5]];portConstraint=eastwest;whiteSpace=wrap;html=1;" vertex="1" parent="K1tfdDJ60ctjcK07l_BJ-1">
          <mxGeometry y="52" width="290" height="26" as="geometry" />
        </mxCell>
        <mxCell id="K1tfdDJ60ctjcK07l_BJ-4" value="+ publishUserListing(listing: &lt;b&gt;Listing&lt;/b&gt;): bool" style="text;strokeColor=none;fillColor=none;align=left;verticalAlign=top;spacingLeft=4;spacingRight=4;overflow=hidden;rotatable=0;points=[[0,0.5],[1,0.5]];portConstraint=eastwest;whiteSpace=wrap;html=1;" vertex="1" parent="K1tfdDJ60ctjcK07l_BJ-1">
          <mxGeometry y="78" width="290" height="26" as="geometry" />
        </mxCell>
        <mxCell id="K1tfdDJ60ctjcK07l_BJ-5" value="+ editUserListing(id: Guid, listing:&lt;b&gt;Listing&lt;/b&gt;): bool" style="text;strokeColor=none;fillColor=none;align=left;verticalAlign=top;spacingLeft=4;spacingRight=4;overflow=hidden;rotatable=0;points=[[0,0.5],[1,0.5]];portConstraint=eastwest;whiteSpace=wrap;html=1;" vertex="1" parent="K1tfdDJ60ctjcK07l_BJ-1">
          <mxGeometry y="104" width="290" height="26" as="geometry" />
        </mxCell>
        <mxCell id="K1tfdDJ60ctjcK07l_BJ-6" value="+ deleteListing(id: Guid): bool" style="text;strokeColor=none;fillColor=none;align=left;verticalAlign=top;spacingLeft=4;spacingRight=4;overflow=hidden;rotatable=0;points=[[0,0.5],[1,0.5]];portConstraint=eastwest;whiteSpace=wrap;html=1;" vertex="1" parent="K1tfdDJ60ctjcK07l_BJ-1">
          <mxGeometry y="130" width="290" height="26" as="geometry" />
        </mxCell>
        <mxCell id="K1tfdDJ60ctjcK07l_BJ-7" value="&lt;i&gt;&amp;lt;&amp;lt;abstract&amp;gt;&amp;gt;&lt;br&gt;&lt;b&gt;Person&lt;/b&gt;&lt;/i&gt;" style="swimlane;fontStyle=0;childLayout=stackLayout;horizontal=1;startSize=38;fillColor=none;horizontalStack=0;resizeParent=1;resizeParentMax=0;resizeLast=0;collapsible=1;marginBottom=0;whiteSpace=wrap;html=1;textShadow=0;" vertex="1" parent="1">
          <mxGeometry x="560" y="190" width="140" height="120" as="geometry" />
        </mxCell>
        <mxCell id="K1tfdDJ60ctjcK07l_BJ-8" value="+ exitAccount(): void" style="text;strokeColor=none;fillColor=none;align=left;verticalAlign=top;spacingLeft=4;spacingRight=4;overflow=hidden;rotatable=0;points=[[0,0.5],[1,0.5]];portConstraint=eastwest;whiteSpace=wrap;html=1;" vertex="1" parent="K1tfdDJ60ctjcK07l_BJ-7">
          <mxGeometry y="38" width="140" height="42" as="geometry" />
        </mxCell>
        <mxCell id="K1tfdDJ60ctjcK07l_BJ-9" value="+ deleteAccount(): void" style="text;strokeColor=none;fillColor=none;align=left;verticalAlign=top;spacingLeft=4;spacingRight=4;overflow=hidden;rotatable=0;points=[[0,0.5],[1,0.5]];portConstraint=eastwest;whiteSpace=wrap;html=1;" vertex="1" parent="K1tfdDJ60ctjcK07l_BJ-7">
          <mxGeometry y="80" width="140" height="40" as="geometry" />
        </mxCell>
        <mxCell id="K1tfdDJ60ctjcK07l_BJ-10" value="Manager" style="swimlane;fontStyle=1;align=center;verticalAlign=top;childLayout=stackLayout;horizontal=1;startSize=26;horizontalStack=0;resizeParent=1;resizeParentMax=0;resizeLast=0;collapsible=1;marginBottom=0;whiteSpace=wrap;html=1;" vertex="1" parent="1">
          <mxGeometry x="360" y="380" width="260" height="156" as="geometry" />
        </mxCell>
        <mxCell id="K1tfdDJ60ctjcK07l_BJ-11" value="+ deleteUserListing(id: Guid): bool" style="text;strokeColor=none;fillColor=none;align=left;verticalAlign=top;spacingLeft=4;spacingRight=4;overflow=hidden;rotatable=0;points=[[0,0.5],[1,0.5]];portConstraint=eastwest;whiteSpace=wrap;html=1;" vertex="1" parent="K1tfdDJ60ctjcK07l_BJ-10">
          <mxGeometry y="26" width="260" height="26" as="geometry" />
        </mxCell>
        <mxCell id="K1tfdDJ60ctjcK07l_BJ-12" value="+ publishShelterListing(listing: &lt;b&gt;Listing&lt;/b&gt;): bool" style="text;strokeColor=none;fillColor=none;align=left;verticalAlign=top;spacingLeft=4;spacingRight=4;overflow=hidden;rotatable=0;points=[[0,0.5],[1,0.5]];portConstraint=eastwest;whiteSpace=wrap;html=1;" vertex="1" parent="K1tfdDJ60ctjcK07l_BJ-10">
          <mxGeometry y="52" width="260" height="26" as="geometry" />
        </mxCell>
        <mxCell id="K1tfdDJ60ctjcK07l_BJ-13" value="+ editShelterListing(listing: &lt;b&gt;Listing&lt;/b&gt;): bool" style="text;strokeColor=none;fillColor=none;align=left;verticalAlign=top;spacingLeft=4;spacingRight=4;overflow=hidden;rotatable=0;points=[[0,0.5],[1,0.5]];portConstraint=eastwest;whiteSpace=wrap;html=1;" vertex="1" parent="K1tfdDJ60ctjcK07l_BJ-10">
          <mxGeometry y="78" width="260" height="26" as="geometry" />
        </mxCell>
        <mxCell id="K1tfdDJ60ctjcK07l_BJ-14" value="+ deleteShelterListing(listing: &lt;b&gt;Listing&lt;/b&gt;): bool" style="text;strokeColor=none;fillColor=none;align=left;verticalAlign=top;spacingLeft=4;spacingRight=4;overflow=hidden;rotatable=0;points=[[0,0.5],[1,0.5]];portConstraint=eastwest;whiteSpace=wrap;html=1;" vertex="1" parent="K1tfdDJ60ctjcK07l_BJ-10">
          <mxGeometry y="104" width="260" height="26" as="geometry" />
        </mxCell>
        <mxCell id="K1tfdDJ60ctjcK07l_BJ-15" value="+ closeRequest(id: Guid): bool" style="text;strokeColor=none;fillColor=none;align=left;verticalAlign=top;spacingLeft=4;spacingRight=4;overflow=hidden;rotatable=0;points=[[0,0.5],[1,0.5]];portConstraint=eastwest;whiteSpace=wrap;html=1;" vertex="1" parent="K1tfdDJ60ctjcK07l_BJ-10">
          <mxGeometry y="130" width="260" height="26" as="geometry" />
        </mxCell>
        <mxCell id="K1tfdDJ60ctjcK07l_BJ-16" value="" style="shape=flexArrow;endArrow=classic;html=1;rounded=0;exitX=0.75;exitY=0;exitDx=0;exitDy=0;" edge="1" parent="1" source="K1tfdDJ60ctjcK07l_BJ-10">
          <mxGeometry width="50" height="50" relative="1" as="geometry">
            <mxPoint x="480" y="440" as="sourcePoint" />
            <mxPoint x="583" y="310" as="targetPoint" />
          </mxGeometry>
        </mxCell>
        <mxCell id="K1tfdDJ60ctjcK07l_BJ-17" value="" style="shape=flexArrow;endArrow=classic;html=1;rounded=0;entryX=0.767;entryY=1.154;entryDx=0;entryDy=0;entryPerimeter=0;exitX=0.25;exitY=0;exitDx=0;exitDy=0;" edge="1" parent="1" source="K1tfdDJ60ctjcK07l_BJ-1">
          <mxGeometry width="50" height="50" relative="1" as="geometry">
            <mxPoint x="370" y="440" as="sourcePoint" />
            <mxPoint x="667.3800000000001" y="310.004" as="targetPoint" />
          </mxGeometry>
        </mxCell>
        <mxCell id="K1tfdDJ60ctjcK07l_BJ-18" value="&lt;i&gt;&amp;lt;&amp;lt;existing&amp;gt;&amp;gt;&lt;br&gt;&lt;b&gt;IdentityUser&lt;/b&gt;&lt;/i&gt;" style="swimlane;fontStyle=0;childLayout=stackLayout;horizontal=1;startSize=38;fillColor=none;horizontalStack=0;resizeParent=1;resizeParentMax=0;resizeLast=0;collapsible=1;marginBottom=0;whiteSpace=wrap;html=1;textShadow=0;" vertex="1" parent="1">
          <mxGeometry x="560" y="8" width="140" height="142" as="geometry" />
        </mxCell>
        <mxCell id="K1tfdDJ60ctjcK07l_BJ-19" value="+ Id: string (Guid)" style="text;strokeColor=none;fillColor=none;align=left;verticalAlign=top;spacingLeft=4;spacingRight=4;overflow=hidden;rotatable=0;points=[[0,0.5],[1,0.5]];portConstraint=eastwest;whiteSpace=wrap;html=1;" vertex="1" parent="K1tfdDJ60ctjcK07l_BJ-18">
          <mxGeometry y="38" width="140" height="26" as="geometry" />
        </mxCell>
        <mxCell id="K1tfdDJ60ctjcK07l_BJ-20" value="+ UserName: string" style="text;strokeColor=none;fillColor=none;align=left;verticalAlign=top;spacingLeft=4;spacingRight=4;overflow=hidden;rotatable=0;points=[[0,0.5],[1,0.5]];portConstraint=eastwest;whiteSpace=wrap;html=1;" vertex="1" parent="K1tfdDJ60ctjcK07l_BJ-18">
          <mxGeometry y="64" width="140" height="26" as="geometry" />
        </mxCell>
        <mxCell id="K1tfdDJ60ctjcK07l_BJ-21" value="+ Email: string" style="text;strokeColor=none;fillColor=none;align=left;verticalAlign=top;spacingLeft=4;spacingRight=4;overflow=hidden;rotatable=0;points=[[0,0.5],[1,0.5]];portConstraint=eastwest;whiteSpace=wrap;html=1;" vertex="1" parent="K1tfdDJ60ctjcK07l_BJ-18">
          <mxGeometry y="90" width="140" height="26" as="geometry" />
        </mxCell>
        <mxCell id="K1tfdDJ60ctjcK07l_BJ-22" value="+ PhoneNumber: string" style="text;strokeColor=none;fillColor=none;align=left;verticalAlign=top;spacingLeft=4;spacingRight=4;overflow=hidden;rotatable=0;points=[[0,0.5],[1,0.5]];portConstraint=eastwest;whiteSpace=wrap;html=1;" vertex="1" parent="K1tfdDJ60ctjcK07l_BJ-18">
          <mxGeometry y="116" width="140" height="26" as="geometry" />
        </mxCell>
        <mxCell id="K1tfdDJ60ctjcK07l_BJ-23" value="" style="shape=flexArrow;endArrow=classic;html=1;rounded=0;entryX=0.5;entryY=1;entryDx=0;entryDy=0;exitX=0.5;exitY=0;exitDx=0;exitDy=0;" edge="1" parent="1" source="K1tfdDJ60ctjcK07l_BJ-7" target="K1tfdDJ60ctjcK07l_BJ-18">
          <mxGeometry width="50" height="50" relative="1" as="geometry">
            <mxPoint x="370" y="260" as="sourcePoint" />
            <mxPoint x="420" y="210" as="targetPoint" />
          </mxGeometry>
        </mxCell>
        <mxCell id="K1tfdDJ60ctjcK07l_BJ-24" value="&lt;i&gt;&lt;span style=&quot;font-weight: normal;&quot;&gt;&amp;lt;&amp;lt;static&amp;gt;&amp;gt;&lt;/span&gt;&lt;/i&gt;&lt;div&gt;Authentication Helper&lt;/div&gt;" style="swimlane;fontStyle=1;align=center;verticalAlign=top;childLayout=stackLayout;horizontal=1;startSize=45;horizontalStack=0;resizeParent=1;resizeParentMax=0;resizeLast=0;collapsible=1;marginBottom=0;whiteSpace=wrap;html=1;" vertex="1" parent="1">
          <mxGeometry x="450" y="560" width="340" height="97" as="geometry" />
        </mxCell>
        <mxCell id="K1tfdDJ60ctjcK07l_BJ-25" value="+ seedRolesAsync(ServiceProvider: IServiceProvider): void" style="text;strokeColor=none;fillColor=none;align=left;verticalAlign=top;spacingLeft=4;spacingRight=4;overflow=hidden;rotatable=0;points=[[0,0.5],[1,0.5]];portConstraint=eastwest;whiteSpace=wrap;html=1;" vertex="1" parent="K1tfdDJ60ctjcK07l_BJ-24">
          <mxGeometry y="45" width="340" height="26" as="geometry" />
        </mxCell>
        <mxCell id="K1tfdDJ60ctjcK07l_BJ-26" value="+ seedAdminUser(ServiceProvider: IServiceProvider): void" style="text;strokeColor=none;fillColor=none;align=left;verticalAlign=top;spacingLeft=4;spacingRight=4;overflow=hidden;rotatable=0;points=[[0,0.5],[1,0.5]];portConstraint=eastwest;whiteSpace=wrap;html=1;" vertex="1" parent="K1tfdDJ60ctjcK07l_BJ-24">
          <mxGeometry y="71" width="340" height="26" as="geometry" />
        </mxCell>
        <mxCell id="K1tfdDJ60ctjcK07l_BJ-27" value="" style="endArrow=diamondThin;endFill=0;endSize=24;html=1;rounded=0;entryX=1;entryY=0.5;entryDx=0;entryDy=0;exitX=0.568;exitY=1.038;exitDx=0;exitDy=0;exitPerimeter=0;" edge="1" parent="1" source="K1tfdDJ60ctjcK07l_BJ-6" target="K1tfdDJ60ctjcK07l_BJ-24">
          <mxGeometry width="160" relative="1" as="geometry">
            <mxPoint x="800" y="570" as="sourcePoint" />
            <mxPoint x="730" y="550" as="targetPoint" />
            <Array as="points">
              <mxPoint x="830" y="596" />
            </Array>
          </mxGeometry>
        </mxCell>
        <mxCell id="K1tfdDJ60ctjcK07l_BJ-28" value="" style="endArrow=diamondThin;endFill=0;endSize=24;html=1;rounded=0;entryX=0;entryY=0.5;entryDx=0;entryDy=0;exitX=0.321;exitY=1.008;exitDx=0;exitDy=0;exitPerimeter=0;" edge="1" parent="1" source="K1tfdDJ60ctjcK07l_BJ-15" target="K1tfdDJ60ctjcK07l_BJ-24">
          <mxGeometry width="160" relative="1" as="geometry">
            <mxPoint x="570" y="550" as="sourcePoint" />
            <mxPoint x="730" y="550" as="targetPoint" />
            <Array as="points">
              <mxPoint x="410" y="596" />
            </Array>
          </mxGeometry>
        </mxCell>
        <mxCell id="3cCBEToO1OQPz7Rv69XJ-6" style="edgeStyle=orthogonalEdgeStyle;rounded=0;orthogonalLoop=1;jettySize=auto;html=1;exitX=0;exitY=0;exitDx=0;exitDy=0;entryX=1;entryY=0;entryDx=0;entryDy=0;" edge="1" parent="1" source="3cCBEToO1OQPz7Rv69XJ-1" target="K1tfdDJ60ctjcK07l_BJ-1">
          <mxGeometry relative="1" as="geometry">
            <Array as="points">
              <mxPoint x="940" y="380" />
              <mxPoint x="940" y="380" />
            </Array>
          </mxGeometry>
        </mxCell>
        <mxCell id="3cCBEToO1OQPz7Rv69XJ-1" value="Contacts" style="swimlane;fontStyle=1;align=center;verticalAlign=top;childLayout=stackLayout;horizontal=1;startSize=26;horizontalStack=0;resizeParent=1;resizeParentMax=0;resizeLast=0;collapsible=1;marginBottom=0;whiteSpace=wrap;html=1;" vertex="1" parent="1">
          <mxGeometry x="960" y="380" width="160" height="130" as="geometry" />
        </mxCell>
        <mxCell id="3cCBEToO1OQPz7Rv69XJ-2" value="+ Id: Guid" style="text;strokeColor=none;fillColor=none;align=left;verticalAlign=top;spacingLeft=4;spacingRight=4;overflow=hidden;rotatable=0;points=[[0,0.5],[1,0.5]];portConstraint=eastwest;whiteSpace=wrap;html=1;" vertex="1" parent="3cCBEToO1OQPz7Rv69XJ-1">
          <mxGeometry y="26" width="160" height="26" as="geometry" />
        </mxCell>
        <mxCell id="3cCBEToO1OQPz7Rv69XJ-3" value="+ UserName: string" style="text;strokeColor=none;fillColor=none;align=left;verticalAlign=top;spacingLeft=4;spacingRight=4;overflow=hidden;rotatable=0;points=[[0,0.5],[1,0.5]];portConstraint=eastwest;whiteSpace=wrap;html=1;" vertex="1" parent="3cCBEToO1OQPz7Rv69XJ-1">
          <mxGeometry y="52" width="160" height="26" as="geometry" />
        </mxCell>
        <mxCell id="3cCBEToO1OQPz7Rv69XJ-4" value="+ PhoneNumber: string" style="text;strokeColor=none;fillColor=none;align=left;verticalAlign=top;spacingLeft=4;spacingRight=4;overflow=hidden;rotatable=0;points=[[0,0.5],[1,0.5]];portConstraint=eastwest;whiteSpace=wrap;html=1;" vertex="1" parent="3cCBEToO1OQPz7Rv69XJ-1">
          <mxGeometry y="78" width="160" height="26" as="geometry" />
        </mxCell>
        <mxCell id="3cCBEToO1OQPz7Rv69XJ-5" value="+ Email: string" style="text;strokeColor=none;fillColor=none;align=left;verticalAlign=top;spacingLeft=4;spacingRight=4;overflow=hidden;rotatable=0;points=[[0,0.5],[1,0.5]];portConstraint=eastwest;whiteSpace=wrap;html=1;" vertex="1" parent="3cCBEToO1OQPz7Rv69XJ-1">
          <mxGeometry y="104" width="160" height="26" as="geometry" />
        </mxCell>
      </root>
    </mxGraphModel>
  </diagram>
  <diagram id="SnMi0Sw9o8Jr3PdobqH2" name="Entities">
    <mxGraphModel dx="1050" dy="530" grid="1" gridSize="10" guides="1" tooltips="1" connect="1" arrows="1" fold="1" page="1" pageScale="1" pageWidth="1169" pageHeight="827" math="0" shadow="0">
      <root>
        <mxCell id="0" />
        <mxCell id="1" parent="0" />
        <mxCell id="ArYmDLJZgsxcVMYiGW5s-1" value="Pet" style="swimlane;fontStyle=1;align=center;verticalAlign=top;childLayout=stackLayout;horizontal=1;startSize=26;horizontalStack=0;resizeParent=1;resizeParentMax=0;resizeLast=0;collapsible=1;marginBottom=0;whiteSpace=wrap;html=1;" vertex="1" parent="1">
          <mxGeometry x="340" y="60" width="140" height="164" as="geometry" />
        </mxCell>
        <mxCell id="ArYmDLJZgsxcVMYiGW5s-2" value="Id: Guid" style="text;strokeColor=none;fillColor=none;align=left;verticalAlign=top;spacingLeft=4;spacingRight=4;overflow=hidden;rotatable=0;points=[[0,0.5],[1,0.5]];portConstraint=eastwest;whiteSpace=wrap;html=1;" vertex="1" parent="ArYmDLJZgsxcVMYiGW5s-1">
          <mxGeometry y="26" width="140" height="26" as="geometry" />
        </mxCell>
        <mxCell id="ArYmDLJZgsxcVMYiGW5s-3" value="+ Name: string" style="text;strokeColor=none;fillColor=none;align=left;verticalAlign=top;spacingLeft=4;spacingRight=4;overflow=hidden;rotatable=0;points=[[0,0.5],[1,0.5]];portConstraint=eastwest;whiteSpace=wrap;html=1;" vertex="1" parent="ArYmDLJZgsxcVMYiGW5s-1">
          <mxGeometry y="52" width="140" height="26" as="geometry" />
        </mxCell>
        <mxCell id="ArYmDLJZgsxcVMYiGW5s-4" value="+ Type: &lt;b&gt;PetType&lt;/b&gt;" style="text;strokeColor=none;fillColor=none;align=left;verticalAlign=top;spacingLeft=4;spacingRight=4;overflow=hidden;rotatable=0;points=[[0,0.5],[1,0.5]];portConstraint=eastwest;whiteSpace=wrap;html=1;" vertex="1" parent="ArYmDLJZgsxcVMYiGW5s-1">
          <mxGeometry y="78" width="140" height="26" as="geometry" />
        </mxCell>
        <mxCell id="ArYmDLJZgsxcVMYiGW5s-5" value="+ Age: uint" style="text;strokeColor=none;fillColor=none;align=left;verticalAlign=top;spacingLeft=4;spacingRight=4;overflow=hidden;rotatable=0;points=[[0,0.5],[1,0.5]];portConstraint=eastwest;whiteSpace=wrap;html=1;" vertex="1" parent="ArYmDLJZgsxcVMYiGW5s-1">
          <mxGeometry y="104" width="140" height="26" as="geometry" />
        </mxCell>
        <mxCell id="ArYmDLJZgsxcVMYiGW5s-6" value="" style="line;strokeWidth=1;fillColor=none;align=left;verticalAlign=middle;spacingTop=-1;spacingLeft=3;spacingRight=3;rotatable=0;labelPosition=right;points=[];portConstraint=eastwest;strokeColor=inherit;" vertex="1" parent="ArYmDLJZgsxcVMYiGW5s-1">
          <mxGeometry y="130" width="140" height="8" as="geometry" />
        </mxCell>
        <mxCell id="ArYmDLJZgsxcVMYiGW5s-7" value="+ ToString(): string" style="text;strokeColor=none;fillColor=none;align=left;verticalAlign=top;spacingLeft=4;spacingRight=4;overflow=hidden;rotatable=0;points=[[0,0.5],[1,0.5]];portConstraint=eastwest;whiteSpace=wrap;html=1;" vertex="1" parent="ArYmDLJZgsxcVMYiGW5s-1">
          <mxGeometry y="138" width="140" height="26" as="geometry" />
        </mxCell>
        <mxCell id="ArYmDLJZgsxcVMYiGW5s-8" value="&lt;i&gt;&amp;lt;&amp;lt;enumeration&amp;gt;&amp;gt;&lt;br&gt;&lt;b&gt;PetType&lt;/b&gt;&lt;/i&gt;" style="swimlane;fontStyle=0;childLayout=stackLayout;horizontal=1;startSize=38;fillColor=none;horizontalStack=0;resizeParent=1;resizeParentMax=0;resizeLast=0;collapsible=1;marginBottom=0;whiteSpace=wrap;html=1;textShadow=0;" vertex="1" parent="1">
          <mxGeometry x="180" y="60" width="140" height="194" as="geometry" />
        </mxCell>
        <mxCell id="ArYmDLJZgsxcVMYiGW5s-9" value="&lt;div align=&quot;center&quot;&gt;Dog&lt;/div&gt;" style="text;strokeColor=none;fillColor=none;align=center;verticalAlign=top;spacingLeft=4;spacingRight=4;overflow=hidden;rotatable=0;points=[[0,0.5],[1,0.5]];portConstraint=eastwest;whiteSpace=wrap;html=1;" vertex="1" parent="ArYmDLJZgsxcVMYiGW5s-8">
          <mxGeometry y="38" width="140" height="26" as="geometry" />
        </mxCell>
        <mxCell id="ArYmDLJZgsxcVMYiGW5s-10" value="Cat" style="text;strokeColor=none;fillColor=none;align=center;verticalAlign=top;spacingLeft=4;spacingRight=4;overflow=hidden;rotatable=0;points=[[0,0.5],[1,0.5]];portConstraint=eastwest;whiteSpace=wrap;html=1;" vertex="1" parent="ArYmDLJZgsxcVMYiGW5s-8">
          <mxGeometry y="64" width="140" height="26" as="geometry" />
        </mxCell>
        <mxCell id="ArYmDLJZgsxcVMYiGW5s-11" value="Hamster" style="text;strokeColor=none;fillColor=none;align=center;verticalAlign=top;spacingLeft=4;spacingRight=4;overflow=hidden;rotatable=0;points=[[0,0.5],[1,0.5]];portConstraint=eastwest;whiteSpace=wrap;html=1;" vertex="1" parent="ArYmDLJZgsxcVMYiGW5s-8">
          <mxGeometry y="90" width="140" height="26" as="geometry" />
        </mxCell>
        <mxCell id="ArYmDLJZgsxcVMYiGW5s-12" value="Parrot" style="text;strokeColor=none;fillColor=none;align=center;verticalAlign=top;spacingLeft=4;spacingRight=4;overflow=hidden;rotatable=0;points=[[0,0.5],[1,0.5]];portConstraint=eastwest;whiteSpace=wrap;html=1;" vertex="1" parent="ArYmDLJZgsxcVMYiGW5s-8">
          <mxGeometry y="116" width="140" height="26" as="geometry" />
        </mxCell>
        <mxCell id="ArYmDLJZgsxcVMYiGW5s-13" value="Horse" style="text;strokeColor=none;fillColor=none;align=center;verticalAlign=top;spacingLeft=4;spacingRight=4;overflow=hidden;rotatable=0;points=[[0,0.5],[1,0.5]];portConstraint=eastwest;whiteSpace=wrap;html=1;" vertex="1" parent="ArYmDLJZgsxcVMYiGW5s-8">
          <mxGeometry y="142" width="140" height="26" as="geometry" />
        </mxCell>
        <mxCell id="ArYmDLJZgsxcVMYiGW5s-14" value="Monkey" style="text;strokeColor=none;fillColor=none;align=center;verticalAlign=top;spacingLeft=4;spacingRight=4;overflow=hidden;rotatable=0;points=[[0,0.5],[1,0.5]];portConstraint=eastwest;whiteSpace=wrap;html=1;" vertex="1" parent="ArYmDLJZgsxcVMYiGW5s-8">
          <mxGeometry y="168" width="140" height="26" as="geometry" />
        </mxCell>
        <mxCell id="ArYmDLJZgsxcVMYiGW5s-20" value="Listing" style="swimlane;fontStyle=1;align=center;verticalAlign=top;childLayout=stackLayout;horizontal=1;startSize=26;horizontalStack=0;resizeParent=1;resizeParentMax=0;resizeLast=0;collapsible=1;marginBottom=0;whiteSpace=wrap;html=1;" vertex="1" parent="1">
          <mxGeometry x="500" y="60" width="160" height="156" as="geometry" />
        </mxCell>
        <mxCell id="ArYmDLJZgsxcVMYiGW5s-21" value="+ Id: Guid" style="text;strokeColor=none;fillColor=none;align=left;verticalAlign=top;spacingLeft=4;spacingRight=4;overflow=hidden;rotatable=0;points=[[0,0.5],[1,0.5]];portConstraint=eastwest;whiteSpace=wrap;html=1;" vertex="1" parent="ArYmDLJZgsxcVMYiGW5s-20">
          <mxGeometry y="26" width="160" height="26" as="geometry" />
        </mxCell>
        <mxCell id="ArYmDLJZgsxcVMYiGW5s-22" value="+ Title: string" style="text;strokeColor=none;fillColor=none;align=left;verticalAlign=top;spacingLeft=4;spacingRight=4;overflow=hidden;rotatable=0;points=[[0,0.5],[1,0.5]];portConstraint=eastwest;whiteSpace=wrap;html=1;" vertex="1" parent="ArYmDLJZgsxcVMYiGW5s-20">
          <mxGeometry y="52" width="160" height="26" as="geometry" />
        </mxCell>
        <mxCell id="ArYmDLJZgsxcVMYiGW5s-23" value="+ Content: string" style="text;strokeColor=none;fillColor=none;align=left;verticalAlign=top;spacingLeft=4;spacingRight=4;overflow=hidden;rotatable=0;points=[[0,0.5],[1,0.5]];portConstraint=eastwest;whiteSpace=wrap;html=1;" vertex="1" parent="ArYmDLJZgsxcVMYiGW5s-20">
          <mxGeometry y="78" width="160" height="26" as="geometry" />
        </mxCell>
        <mxCell id="ArYmDLJZgsxcVMYiGW5s-24" value="+ Image: IFile" style="text;strokeColor=none;fillColor=none;align=left;verticalAlign=top;spacingLeft=4;spacingRight=4;overflow=hidden;rotatable=0;points=[[0,0.5],[1,0.5]];portConstraint=eastwest;whiteSpace=wrap;html=1;" vertex="1" parent="ArYmDLJZgsxcVMYiGW5s-20">
          <mxGeometry y="104" width="160" height="26" as="geometry" />
        </mxCell>
        <mxCell id="ArYmDLJZgsxcVMYiGW5s-25" value="+ Pet: &lt;b&gt;Pet&lt;/b&gt;" style="text;strokeColor=none;fillColor=none;align=left;verticalAlign=top;spacingLeft=4;spacingRight=4;overflow=hidden;rotatable=0;points=[[0,0.5],[1,0.5]];portConstraint=eastwest;whiteSpace=wrap;html=1;" vertex="1" parent="ArYmDLJZgsxcVMYiGW5s-20">
          <mxGeometry y="130" width="160" height="26" as="geometry" />
        </mxCell>
        <mxCell id="RDDHE9DzhDlRzruC5qIC-1" value="Request" style="swimlane;fontStyle=1;align=center;verticalAlign=top;childLayout=stackLayout;horizontal=1;startSize=26;horizontalStack=0;resizeParent=1;resizeParentMax=0;resizeLast=0;collapsible=1;marginBottom=0;whiteSpace=wrap;html=1;" vertex="1" parent="1">
          <mxGeometry x="680" y="60" width="140" height="190" as="geometry" />
        </mxCell>
        <mxCell id="RDDHE9DzhDlRzruC5qIC-2" value="Id: Guid" style="text;strokeColor=none;fillColor=none;align=left;verticalAlign=top;spacingLeft=4;spacingRight=4;overflow=hidden;rotatable=0;points=[[0,0.5],[1,0.5]];portConstraint=eastwest;whiteSpace=wrap;html=1;" vertex="1" parent="RDDHE9DzhDlRzruC5qIC-1">
          <mxGeometry y="26" width="140" height="26" as="geometry" />
        </mxCell>
        <mxCell id="RDDHE9DzhDlRzruC5qIC-3" value="+ User: &lt;b&gt;User&lt;/b&gt;" style="text;strokeColor=none;fillColor=none;align=left;verticalAlign=top;spacingLeft=4;spacingRight=4;overflow=hidden;rotatable=0;points=[[0,0.5],[1,0.5]];portConstraint=eastwest;whiteSpace=wrap;html=1;" vertex="1" parent="RDDHE9DzhDlRzruC5qIC-1">
          <mxGeometry y="52" width="140" height="26" as="geometry" />
        </mxCell>
        <mxCell id="RDDHE9DzhDlRzruC5qIC-4" value="+ Listing: &lt;b&gt;Listing&lt;/b&gt;" style="text;strokeColor=none;fillColor=none;align=left;verticalAlign=top;spacingLeft=4;spacingRight=4;overflow=hidden;rotatable=0;points=[[0,0.5],[1,0.5]];portConstraint=eastwest;whiteSpace=wrap;html=1;" vertex="1" parent="RDDHE9DzhDlRzruC5qIC-1">
          <mxGeometry y="78" width="140" height="26" as="geometry" />
        </mxCell>
        <mxCell id="RDDHE9DzhDlRzruC5qIC-5" value="+ IsClosed: bool" style="text;strokeColor=none;fillColor=none;align=left;verticalAlign=top;spacingLeft=4;spacingRight=4;overflow=hidden;rotatable=0;points=[[0,0.5],[1,0.5]];portConstraint=eastwest;whiteSpace=wrap;html=1;" vertex="1" parent="RDDHE9DzhDlRzruC5qIC-1">
          <mxGeometry y="104" width="140" height="26" as="geometry" />
        </mxCell>
        <mxCell id="RDDHE9DzhDlRzruC5qIC-6" value="" style="line;strokeWidth=1;fillColor=none;align=left;verticalAlign=middle;spacingTop=-1;spacingLeft=3;spacingRight=3;rotatable=0;labelPosition=right;points=[];portConstraint=eastwest;strokeColor=inherit;" vertex="1" parent="RDDHE9DzhDlRzruC5qIC-1">
          <mxGeometry y="130" width="140" height="8" as="geometry" />
        </mxCell>
        <mxCell id="RDDHE9DzhDlRzruC5qIC-7" value="+ Close(): bool" style="text;strokeColor=none;fillColor=none;align=left;verticalAlign=top;spacingLeft=4;spacingRight=4;overflow=hidden;rotatable=0;points=[[0,0.5],[1,0.5]];portConstraint=eastwest;whiteSpace=wrap;html=1;" vertex="1" parent="RDDHE9DzhDlRzruC5qIC-1">
          <mxGeometry y="138" width="140" height="26" as="geometry" />
        </mxCell>
        <mxCell id="RDDHE9DzhDlRzruC5qIC-8" value="+ Delete(): void" style="text;strokeColor=none;fillColor=none;align=left;verticalAlign=top;spacingLeft=4;spacingRight=4;overflow=hidden;rotatable=0;points=[[0,0.5],[1,0.5]];portConstraint=eastwest;whiteSpace=wrap;html=1;" vertex="1" parent="RDDHE9DzhDlRzruC5qIC-1">
          <mxGeometry y="164" width="140" height="26" as="geometry" />
        </mxCell>
        <mxCell id="RDDHE9DzhDlRzruC5qIC-9" value="UserRequest" style="swimlane;fontStyle=1;align=center;verticalAlign=top;childLayout=stackLayout;horizontal=1;startSize=26;horizontalStack=0;resizeParent=1;resizeParentMax=0;resizeLast=0;collapsible=1;marginBottom=0;whiteSpace=wrap;html=1;" vertex="1" parent="1">
          <mxGeometry x="680" y="290" width="140" height="52" as="geometry" />
        </mxCell>
        <mxCell id="RDDHE9DzhDlRzruC5qIC-10" value="+ PetOwner: &lt;b&gt;User&lt;/b&gt;" style="text;strokeColor=none;fillColor=none;align=left;verticalAlign=top;spacingLeft=4;spacingRight=4;overflow=hidden;rotatable=0;points=[[0,0.5],[1,0.5]];portConstraint=eastwest;whiteSpace=wrap;html=1;" vertex="1" parent="RDDHE9DzhDlRzruC5qIC-9">
          <mxGeometry y="26" width="140" height="26" as="geometry" />
        </mxCell>
        <mxCell id="RDDHE9DzhDlRzruC5qIC-11" value="" style="shape=flexArrow;endArrow=classic;html=1;rounded=0;exitX=0.5;exitY=0;exitDx=0;exitDy=0;entryX=0.491;entryY=1.038;entryDx=0;entryDy=0;entryPerimeter=0;" edge="1" parent="1" source="RDDHE9DzhDlRzruC5qIC-9" target="RDDHE9DzhDlRzruC5qIC-8">
          <mxGeometry width="50" height="50" relative="1" as="geometry">
            <mxPoint x="519" y="280" as="sourcePoint" />
            <mxPoint x="759" y="260" as="targetPoint" />
          </mxGeometry>
        </mxCell>
      </root>
    </mxGraphModel>
  </diagram>
  <diagram id="XI_V3TAcekRTd1-Qoydd" name="Workpieces">
    <mxGraphModel dx="1050" dy="530" grid="1" gridSize="10" guides="1" tooltips="1" connect="1" arrows="1" fold="1" page="1" pageScale="1" pageWidth="1169" pageHeight="827" math="0" shadow="0">
      <root>
        <mxCell id="0" />
        <mxCell id="1" parent="0" />
        <mxCell id="kIH8i51SHxq2VKZqlM0v-1" value="Classname" style="swimlane;fontStyle=1;align=center;verticalAlign=top;childLayout=stackLayout;horizontal=1;startSize=26;horizontalStack=0;resizeParent=1;resizeParentMax=0;resizeLast=0;collapsible=1;marginBottom=0;whiteSpace=wrap;html=1;" vertex="1" parent="1">
          <mxGeometry x="290" y="276" width="160" height="86" as="geometry" />
        </mxCell>
        <mxCell id="kIH8i51SHxq2VKZqlM0v-2" value="+ field: type" style="text;strokeColor=none;fillColor=none;align=left;verticalAlign=top;spacingLeft=4;spacingRight=4;overflow=hidden;rotatable=0;points=[[0,0.5],[1,0.5]];portConstraint=eastwest;whiteSpace=wrap;html=1;" vertex="1" parent="kIH8i51SHxq2VKZqlM0v-1">
          <mxGeometry y="26" width="160" height="26" as="geometry" />
        </mxCell>
        <mxCell id="kIH8i51SHxq2VKZqlM0v-3" value="" style="line;strokeWidth=1;fillColor=none;align=left;verticalAlign=middle;spacingTop=-1;spacingLeft=3;spacingRight=3;rotatable=0;labelPosition=right;points=[];portConstraint=eastwest;strokeColor=inherit;" vertex="1" parent="kIH8i51SHxq2VKZqlM0v-1">
          <mxGeometry y="52" width="160" height="8" as="geometry" />
        </mxCell>
        <mxCell id="kIH8i51SHxq2VKZqlM0v-4" value="+ method(type): type" style="text;strokeColor=none;fillColor=none;align=left;verticalAlign=top;spacingLeft=4;spacingRight=4;overflow=hidden;rotatable=0;points=[[0,0.5],[1,0.5]];portConstraint=eastwest;whiteSpace=wrap;html=1;" vertex="1" parent="kIH8i51SHxq2VKZqlM0v-1">
          <mxGeometry y="60" width="160" height="26" as="geometry" />
        </mxCell>
        <mxCell id="kIH8i51SHxq2VKZqlM0v-5" value="&lt;i&gt;&amp;lt;&amp;lt;interface&amp;gt;&amp;gt;&lt;br&gt;&lt;b&gt;IRepository&lt;/b&gt;&lt;/i&gt;" style="swimlane;fontStyle=0;childLayout=stackLayout;horizontal=1;startSize=38;fillColor=none;horizontalStack=0;resizeParent=1;resizeParentMax=0;resizeLast=0;collapsible=1;marginBottom=0;whiteSpace=wrap;html=1;textShadow=0;" vertex="1" parent="1">
          <mxGeometry x="300" y="390" width="140" height="64" as="geometry" />
        </mxCell>
        <mxCell id="kIH8i51SHxq2VKZqlM0v-6" value="+ method(type): type" style="text;strokeColor=none;fillColor=none;align=left;verticalAlign=top;spacingLeft=4;spacingRight=4;overflow=hidden;rotatable=0;points=[[0,0.5],[1,0.5]];portConstraint=eastwest;whiteSpace=wrap;html=1;" vertex="1" parent="kIH8i51SHxq2VKZqlM0v-5">
          <mxGeometry y="38" width="140" height="26" as="geometry" />
        </mxCell>
      </root>
    </mxGraphModel>
  </diagram>
</mxfile>
